<svg width="567" height="103" viewBox="0 0 567 103" fill="none" xmlns="http://www.w3.org/2000/svg">
<path fill-rule="evenodd" clip-rule="evenodd" d="M0 81.0307C0.236874 79.1357 2.86223 38.196 4.14529 17.963L43.8217 17.3708C45.6969 17.8643 49.5066 19.858 49.7435 23.8848C49.9804 27.9117 49.25 51.4214 48.8552 62.6729L47.967 63.8573V65.3378L48.5592 65.9299L48.2631 66.8182L47.967 68.0026L48.5592 69.187L47.967 70.9635L48.5592 72.444L47.967 73.6283V75.9971V78.6619L48.8552 79.8463L48.5592 81.3267L47.3748 81.9189L33.7545 82.215C33.3597 82.1163 32.5109 81.6821 32.2741 80.7346C32.0372 79.7871 32.7676 48.7566 33.1623 33.3598L25.76 33.952L21.6147 34.5441L19.8382 35.1363L19.246 48.1644L18.6538 59.4159V69.187V78.6619V81.0307C18.5551 81.4254 17.7655 82.215 15.3968 82.215H1.48046C1.08567 82.1163 0.236874 81.7413 0 81.0307ZM11.2515 20.6278L10.6593 21.5161L11.2515 22.1083L11.8437 22.4044L12.4359 22.1083V21.22V20.6278H11.2515ZM7.10621 22.4044L7.6984 21.5161L8.88276 21.8122V22.4044L8.58667 23.2926H7.6984L7.10621 22.4044ZM15.3968 30.6949L14.8046 31.5832L15.3968 32.1754L15.989 31.8793L16.5812 30.991L16.2851 30.6949H15.3968ZM9.17886 56.7511L10.0671 56.455H11.2515V57.6394L10.3632 58.2315L9.17886 57.6394V56.7511ZM35.235 62.969L35.8272 62.0807L36.4194 62.6729L36.7155 63.2651L36.4194 64.7456L36.1233 65.9299L35.8272 66.8182V68.0026H36.7155V69.187H34.9389V67.4104V64.7456L35.235 62.969ZM34.9389 71.8518L35.235 70.6674L36.1233 70.3713V70.9635L36.4194 73.0362L36.7155 75.1088L37.6037 75.9971V77.1815L38.492 78.0697L39.0842 78.6619L38.492 79.5502L35.235 79.8463L34.3467 78.958L34.9389 77.7736V75.1088V71.8518ZM40.8607 78.0697L40.2686 78.958V79.8463L41.1568 80.1424L41.749 79.5502V78.6619L40.8607 78.0697ZM13.3242 21.5161L13.6202 20.6278H17.4694L18.0616 21.22L17.7655 22.1083L17.1734 22.7005L16.5812 22.4044L15.989 21.8122L14.2124 22.1083L13.3242 21.5161ZM22.7991 28.0301L22.503 28.6223L22.7991 29.5106L23.6874 29.8067V28.9184V28.0301H22.7991ZM24.8718 29.8067L24.5757 28.9184L25.4639 28.6223L25.76 29.2145L26.3522 29.8067V30.3989H26.9444V31.2871H25.76L25.4639 30.6949L25.76 29.8067H24.8718ZM28.4249 30.6949V31.2871L27.8327 31.5832L28.4249 31.8793L29.017 32.1754L29.9053 31.8793L30.2014 31.2871L29.6092 30.991L29.017 30.3989L28.4249 30.6949Z" fill="#FF8B00"/>
<path fill-rule="evenodd" clip-rule="evenodd" d="M57.4419 19.7395L54.481 66.226L53.5927 80.7346C53.494 81.3267 53.6519 82.5703 55.0732 82.8072C56.4944 83.0441 65.7325 82.9059 70.1739 82.8072L84.9785 50.5331L83.498 75.4049L83.2019 80.7346C83.2019 81.228 83.498 82.215 84.6824 82.215H99.487C99.9805 82.1163 100.967 81.682 100.967 80.7346C100.967 79.7871 101.757 46.98 102.152 30.6949V24.477C101.954 22.1083 100.198 17.2523 94.7495 16.7786H87.3472L71.3582 48.1644L72.8387 18.5551C72.8387 17.963 72.4242 16.7786 70.7661 16.7786H58.9224C58.4839 16.9015 57.574 17.6659 57.4419 19.7395ZM63.6599 20.6278L63.956 20.0356H65.7325L66.0286 20.6278L65.1403 20.9239H64.2521L63.6599 20.6278ZM60.699 21.5161L61.2911 20.6278H61.8833L62.1794 21.8122L61.2911 22.7005L60.699 21.5161ZM68.1013 20.0356L67.8052 20.6278L68.6935 21.22H69.7256L70.47 21.8122L70.7661 21.22V20.0356H68.1013ZM68.1013 31.2871L68.3974 29.8067H69.7256V31.2871H68.1013ZM63.0677 56.455L62.1794 57.0472L61.8833 57.9354L63.3638 58.8237L64.2521 58.5276L64.5482 57.9354L64.2521 56.7511L63.0677 56.455ZM56.5537 74.2205C56.3168 74.2205 56.455 73.0362 56.5537 72.444H57.1458V73.0362L58.0341 73.3322V74.2205H56.5537ZM63.0677 70.6674V71.5557H63.6599V70.3713L63.0677 70.6674ZM88.5316 48.7566V46.98H90.0121V48.7566H88.5316ZM98.0066 53.4941L98.3027 55.2706H99.4871V54.0862L98.5988 53.7901V53.198L98.0066 53.4941ZM95.0457 69.7791L94.7496 68.2987H96.5261V69.7791H95.0457ZM85.2746 77.7736L84.9785 78.3658H84.3863L84.6824 78.958L85.2746 79.2541L85.8668 79.5502L86.1629 78.958L86.459 78.0697L85.2746 77.7736ZM86.459 80.7346V79.5502H87.6434C87.7421 79.8463 87.9395 80.4977 87.9395 80.7346C87.9395 80.9714 86.9525 80.8333 86.459 80.7346ZM94.1574 74.2205V75.701H95.0457V73.9244L94.1574 74.2205ZM89.1238 60.3042V59.1198L90.9004 59.4159V60.3042L90.0121 60.8964L89.1238 60.3042ZM91.1965 69.187L90.3082 69.7791L91.4926 70.9635H92.3808L92.973 70.3713V69.187H91.1965Z" fill="#FF8B00"/>
<path fill-rule="evenodd" clip-rule="evenodd" d="M110.146 21.22L105.409 80.1424C105.409 80.6359 105.646 81.6821 106.593 81.9189C107.541 82.1558 123.767 82.8072 133.834 81.9189C143.901 81.0307 160.482 67.7065 145.677 50.2371C152.784 44.0191 160.482 25.0692 140.644 17.963C137.963 17.963 135.113 18.1731 132.81 18.3431C131.246 18.4584 129.934 18.5552 129.096 18.5552C127.024 18.5552 111.627 20.3317 111.627 20.3317C111.157 20.3317 110.203 20.5094 110.146 21.22ZM132.169 25.3653L131.873 27.1418L133.353 25.9575V25.0692L132.169 25.3653ZM124.174 44.0191L124.767 33.952C127.826 33.0637 134.301 32.2346 135.722 36.0246C137.143 39.8146 128.616 42.9334 124.174 44.0191ZM123.582 67.4104V58.2315C127.037 56.8498 133.945 55.2706 133.945 60.0081C133.945 64.7456 127.037 66.9169 123.582 67.4104ZM120.325 70.6674L118.845 76.8854H120.917L120.325 70.6674ZM114.996 70.3713V66.8182L116.476 66.226V69.4831L114.996 70.3713ZM115.884 60.6003L114.996 61.1925L115.292 62.6729H116.18L115.884 60.6003ZM117.956 44.0191L118.253 43.1308L119.437 44.0191L118.549 44.9074L117.956 44.0191ZM137.499 43.1308L136.61 44.3152L137.202 45.2035L138.091 44.3152L137.499 43.1308ZM122.102 39.5777L122.99 37.8012H124.174L123.582 38.9855V41.0582L122.99 42.2426L122.398 42.8347V41.6504L122.99 40.466L122.102 39.5777Z" fill="#FF8B00"/>
<path fill-rule="evenodd" clip-rule="evenodd" d="M276.958 21.5161L276.07 40.7621C276.169 41.3543 276.78 42.5386 278.439 42.5386C280.807 41.1174 288.506 37.0116 292.059 35.1363C293.835 34.4455 296.915 33.952 295.02 37.5051C293.125 41.0582 281.597 58.5276 276.07 66.8182C273.997 70.5687 271.569 78.7804 278.439 81.6228C285.308 84.4653 303.606 81.0307 311.897 78.958L312.785 62.6729C312.588 62.1794 311.897 61.2517 310.713 61.4886C309.528 61.7254 303.113 63.3638 300.053 64.1534C299.066 64.4495 297.448 64.5679 298.869 62.6729C300.29 60.7779 308.739 46.4865 312.785 39.5777C315.648 33.3598 318.233 20.2725 305.679 17.6669C293.125 15.0613 281.301 19.1473 276.958 21.5161ZM298.573 23.2926H299.757L300.942 24.1809L300.349 25.3653H299.165L298.277 24.7731L298.573 23.2926ZM299.757 27.734L300.942 26.8457L302.126 27.734L301.534 28.3262H300.349L299.757 27.734ZM297.092 30.6949V31.5832L297.981 32.1754L298.277 31.5832V30.6949H297.092ZM308.64 39.2816L309.528 38.3933H311.009L310.417 40.1699H309.528L308.64 39.2816ZM305.383 41.9465L304.495 42.5386L305.383 43.1308H306.567V42.5386L305.383 41.9465ZM302.126 46.98V47.5722V48.7566L301.534 49.0527L300.942 48.7566L299.757 49.6449V48.7566H298.573L299.165 47.5722L300.349 48.1644L300.942 46.98H302.126ZM297.981 54.9745L297.092 55.8628V57.3433L297.981 57.0472L298.573 56.455L298.277 54.9745H297.981ZM293.243 61.4885L293.539 60.0081H294.428L294.132 61.4885L293.539 62.0807L293.243 61.4885ZM294.132 57.9354L293.539 59.1198H294.428V57.9354H294.132ZM283.472 72.1479V71.5557H284.953V72.1479H283.472ZM300.349 71.5557V72.1479L301.534 71.5557H300.349ZM300.942 45.7957L301.534 44.6113H302.422L302.126 45.7957H300.942ZM292.947 28.6223L292.355 29.8067L292.947 30.3988L293.539 29.8067L292.947 28.6223Z" fill="#FF8B00"/>
<path fill-rule="evenodd" clip-rule="evenodd" d="M329.522 21.2199C322.475 26.283 317.537 35.8756 326.998 49.0526C326.923 49.1272 326.843 49.2068 326.758 49.2914C323.799 52.2334 314.736 61.2441 320.78 73.3322C323.445 76.8853 335.584 92.8743 356.015 74.5166C358.976 71.2596 366.378 59.1198 353.35 47.8683C353.448 47.7379 353.58 47.5698 353.741 47.3666C356.287 44.1443 365.816 32.0823 353.589 21.2199H329.522ZM330.897 20.3045L352.2 20.0651C351.549 19.558 350.848 19.0543 350.093 18.5551C348.908 17.6669 342.798 16.4144 338.249 17.3708C335.964 17.7993 333.354 18.7894 330.897 20.3045ZM339.301 38.6552C340.863 39.1393 342.6 38.0122 343.181 36.1378C343.762 34.2634 342.966 32.3515 341.404 31.8675C339.842 31.3834 338.105 32.5105 337.524 34.3849C336.944 36.2593 337.739 38.1712 339.301 38.6552ZM342.562 63.2041C341.511 65.18 339.324 66.0719 337.678 65.1962C336.031 64.3204 335.548 62.0087 336.599 60.0327C337.65 58.0568 339.837 57.1649 341.483 58.0406C343.13 58.9164 343.613 61.2281 342.562 63.2041ZM337.953 26.5496C337.657 26.6483 337.065 26.9049 337.065 27.1418C337.065 27.3787 337.262 27.8327 337.361 28.0301H338.249V27.1418L338.545 26.5496H337.953ZM347.724 30.3988L348.316 29.2144L349.205 30.3988L348.908 30.991H348.02L347.724 30.3988ZM349.205 37.8011L349.797 36.9128L350.389 36.6168H351.277V37.2089L350.389 37.8011C350.29 37.8998 350.093 38.1564 350.093 38.3933C350.093 38.6302 349.698 38.8868 349.501 38.9855L349.205 37.8011ZM341.21 45.7956L340.618 46.6839L341.21 46.98C341.802 47.2761 342.691 47.2761 342.691 46.98V45.7956H341.21ZM344.763 48.7565C345.158 48.6578 346.066 48.4604 346.54 48.4604H347.132V49.3487L346.54 49.9409L345.651 49.3487L344.763 48.7565ZM347.132 22.1082H345.355L346.244 22.7004H347.724C348.02 22.503 348.672 22.1674 348.908 22.4043C349.145 22.6412 349.797 22.7004 350.093 22.7004L351.277 22.9965V23.5887L351.869 23.8848V24.477H352.758V23.5887C352.758 23.3518 352.165 22.8978 351.869 22.7004L351.573 22.1082L348.316 21.8121L347.132 22.1082ZM341.21 73.3322H346.244L347.428 73.6283L348.908 73.3322L349.501 73.0361H350.685L352.758 73.3322V73.6283H355.719L356.015 74.5166H353.35L351.277 74.2205C350.685 74.3192 349.382 74.4574 348.908 74.2205C348.435 73.9836 348.119 74.714 348.02 75.1088H343.579C343.342 75.1088 341.506 74.714 340.618 74.5166L341.21 73.3322ZM324.925 71.2596L324.629 72.4439H325.517V71.8517L324.925 71.2596ZM355.618 61.4397L356.607 61.1924L357.495 61.7846C357.1 61.7846 356.192 61.7254 355.719 61.4885C355.682 61.47 355.648 61.4538 355.618 61.4397ZM355.422 61.4885L355.618 61.4397C355.257 61.273 355.331 61.3975 355.422 61.4885ZM354.83 71.2596L352.758 71.8517L353.942 72.4439L355.422 71.8517L354.83 71.2596ZM335.88 45.4995L336.473 44.9073L337.361 45.2034L337.065 46.0917H336.176C335.94 46.0917 335.88 45.6969 335.88 45.4995ZM347.724 41.3542V40.466H346.54V41.3542H347.724Z" fill="#FF8B00"/>
<path fill-rule="evenodd" clip-rule="evenodd" d="M369.339 19.1473L365.786 49.0527C365.884 50.6318 366.911 53.7309 370.227 53.494C373.543 53.2572 378.913 51.8162 381.183 51.1253C385.229 50.7305 391.368 52.3689 383.551 62.0807C378.814 64.7455 374.372 65.9299 365.194 65.6338C364.483 66.3444 364.305 67.5091 364.305 68.0026C364.996 72.2466 366.496 80.7938 366.97 81.0306C367.207 81.5044 368.056 82.0176 368.451 82.215C380.788 83.1033 405.581 79.787 406.054 59.4159C406.528 39.0447 391.644 36.5181 384.143 37.8011V33.9519L400.132 32.1754C400.33 32.1754 400.902 31.9385 401.613 30.991L401.909 29.2145L402.205 16.4825L371.412 17.6669C370.918 17.6669 369.813 17.9629 369.339 19.1473ZM374.372 22.1083L373.484 23.2926H377.037L378.518 23.8848L379.11 22.7004L377.926 21.5161L374.372 22.1083ZM383.551 22.1083H387.401L388.881 22.7004L389.177 21.8122H391.546V22.7004L390.658 23.2926L389.177 23.8848L387.401 23.2926H384.143L383.551 22.1083ZM382.367 44.3152C382.13 44.3152 382.268 43.3282 382.367 42.8347H383.551V44.3152H382.367ZM382.959 46.0917C382.564 46.1904 381.893 46.4471 382.367 46.6839L383.551 47.2761L383.847 46.3878L382.959 46.0917ZM386.808 48.4605L388.289 47.8683L388.881 49.0527L388.585 50.5331L387.401 50.237V49.0527L386.808 48.4605ZM386.808 43.723L386.512 44.6113L387.401 45.2035H388.289L388.585 44.3152H387.401L386.808 43.723ZM391.546 54.3823L392.138 53.494L393.026 53.198C393.125 53.3954 393.441 53.8494 393.915 54.0862C394.388 54.3231 393.717 54.7771 393.322 54.9745H392.138L391.546 54.3823ZM388.289 52.3097L387.697 53.198L388.881 53.494L389.177 52.3097H388.289ZM400.132 59.712H399.244L398.948 62.969L399.244 64.4495L400.429 63.2651L400.132 59.712ZM400.132 56.455C399.738 56.3563 398.948 56.0404 398.948 55.5667C398.948 55.0929 399.146 54.5797 399.244 54.3823L400.132 54.0862L400.725 55.2706L400.132 56.455ZM396.283 22.1083L397.172 21.5161L398.356 21.8122C398.257 22.207 398.06 23.0557 398.06 23.2926C398.06 23.5295 397.27 24.1809 396.875 24.477V23.2926L396.283 22.1083ZM387.697 41.6504V42.8347H389.177V41.6504H387.697Z" fill="#FF8B00"/>
<path fill-rule="evenodd" clip-rule="evenodd" d="M413.753 19.4434L409.904 79.2541C409.805 79.945 409.904 81.4452 411.088 81.9189C412.272 82.3927 421.846 82.1163 426.485 81.9189C426.978 81.6228 427.906 80.853 427.669 80.1424C427.432 79.4318 428.755 49.4475 429.446 34.5442L442.474 33.3598L441.586 79.2541C441.586 80.2411 442.118 82.2743 444.25 82.5111C446.382 82.748 453.627 82.215 456.982 81.9189C457.377 81.8202 458.167 81.386 458.167 80.4385C458.167 80.4 458.168 80.3011 458.171 80.1456L458.167 80.1424L457.871 79.5502L456.982 79.2541L456.686 78.0697L457.278 75.1088V73.3323V72.444L457.871 71.8518L457.278 70.9635L457.574 69.7791L458.167 68.8909H457.574V67.1143V64.7456V62.6729L458.463 62.0807L458.631 62.0061C458.955 49.546 459.376 33.5586 459.647 23.2926C459.351 21.5161 457.634 17.8445 453.133 17.3708C448.633 16.897 426.386 17.7656 415.825 18.2591C415.332 18.2591 414.227 18.4959 413.753 19.4434ZM419.971 21.5161L420.267 20.6278H422.043V21.22V22.1083L421.451 22.4044H420.267L419.971 21.5161ZM416.122 22.4044L417.01 21.5161H418.194L418.49 22.4044L417.306 23.2926L416.122 22.4044ZM426.781 20.9239H423.228V21.5161L424.116 22.1083H426.485L427.373 21.5161L426.781 20.9239ZM424.116 31.8793L424.412 30.3989H425.893L426.189 31.8793H424.116ZM432.111 28.0301L431.814 28.9184L432.703 29.8067H433.295V28.9184L433.591 28.0301H432.111ZM435.368 29.5106L435.071 28.3262H434.183V29.8067L434.775 30.1028L435.071 30.991L435.96 31.2871L436.552 30.991V30.3989L435.96 29.8067L435.368 29.5106ZM437.736 30.6949L437.44 31.5832L438.032 32.1754L438.625 31.8793H439.809V30.991L439.217 30.6949H437.736ZM440.697 28.9184L440.401 28.0301L441.882 27.734L442.474 28.0301L442.178 29.2145L440.697 28.9184ZM419.082 56.7511L418.786 57.6394L419.971 57.9354L420.859 57.6394V56.7511H419.082ZM444.546 64.4495L444.843 61.7846L445.731 62.0807V64.7456V66.5221L445.435 67.7065L446.323 68.0026L445.731 69.187L443.658 68.8909V64.7456L444.546 64.4495ZM445.731 70.6674H444.546V71.8518L443.658 73.0362L444.546 75.9971L444.25 78.6619L444.843 79.8463L445.435 78.958H446.619L447.507 79.8463H448.692V78.3658L447.507 77.7736L447.211 76.5893L446.619 75.701L446.323 74.8127L445.731 73.0362V71.8518V70.6674ZM449.58 79.2541L449.876 78.0697L451.06 78.3658L451.357 79.2541L450.172 79.8463L449.58 79.2541ZM418.786 70.6674C418.55 70.4305 419.082 69.9765 419.379 69.7791L420.859 70.3713V71.2596H419.971C419.675 71.1609 419.023 70.9043 418.786 70.6674ZM413.457 72.444L413.161 73.3323L414.049 73.9244V73.3323L414.641 72.1479L413.161 72.444H413.457Z" fill="#FF8B00"/>
<path fill-rule="evenodd" clip-rule="evenodd" d="M463.2 78.6619C468.629 59.8107 480.374 21.6345 483.927 19.7395C487.48 17.8445 493.895 17.1734 496.659 17.0747C498.731 17.0747 503.173 18.3775 504.357 23.5887C505.541 28.7999 512.352 62.4755 515.609 78.6619C515.806 79.6489 515.786 81.7413 514.128 82.215C512.47 82.6888 503.568 82.4124 499.324 82.215C498.83 82.215 497.843 81.8597 497.843 80.4385C497.843 79.0172 497.053 71.9505 496.659 68.5948L482.446 71.8518L480.374 80.4385C480.275 80.9319 479.722 81.9781 478.301 82.215C476.88 82.4519 468.629 82.3137 464.681 82.215C463.99 82.1163 462.726 81.2675 463.2 78.6619ZM499.62 25.6614L499.027 26.2536V27.1418H499.62L500.212 26.8458L499.62 25.6614ZM489.849 38.9855L490.441 38.0973L491.625 38.6894L491.329 39.8738H490.441L490.737 39.2816L489.849 38.9855ZM491.921 40.7621L487.776 55.2706H494.586L491.921 40.7621ZM488.368 42.5386L482.446 56.455L483.335 57.6394L489.552 43.4269L488.368 42.5386ZM478.597 66.226L479.485 65.3378H480.67L481.558 66.226L480.966 67.1143H479.485L478.597 66.226ZM475.34 69.7791C475.439 69.9765 475.577 70.4305 475.34 70.6674L474.748 71.2596V72.444H475.34L476.228 71.2596V70.0752L475.34 69.7791ZM503.469 65.3378L504.357 64.1534L505.838 64.7456L506.134 66.226L507.318 67.1143V68.5948L508.502 69.7791V71.2596C508.7 71.9505 509.095 73.3915 509.095 73.6283C509.095 73.8652 509.292 75.1088 509.391 75.701L510.279 77.7736L509.095 78.6619L508.502 77.1815L507.318 74.8127V73.6283L505.838 72.7401H504.949L504.357 71.8518C504.258 71.5557 504.002 70.8451 503.765 70.3713C503.528 69.8976 504.061 69.3844 504.357 69.187L504.653 68.5948V67.1143C504.653 66.8774 504.456 66.4234 504.357 66.226L503.469 65.3378ZM502.877 51.1253L501.988 52.0136V53.198C501.988 53.4348 502.581 53.8889 502.877 54.0863L503.173 54.3823H504.357L503.765 53.198L503.469 52.3097L504.653 52.0136L503.469 51.1253H502.877ZM499.027 61.7847V61.1925L499.62 60.6003L500.212 61.7847H499.62H499.027ZM500.804 57.6394L501.692 57.9355V58.5276H501.988V57.0472L500.804 56.455V57.6394ZM498.139 50.8292L498.435 49.941L499.916 49.6449V50.8292V51.4214L499.027 51.1253L498.139 50.8292ZM499.324 52.6058L498.731 53.4941V55.2706C498.731 55.7641 498.791 56.6919 499.027 56.455C499.264 56.2181 499.324 54.9745 499.324 54.3823L499.916 53.4941V52.6058H499.324ZM480.077 38.9855V38.0973L480.67 38.6894V39.2816L480.077 38.9855ZM493.106 29.5106L492.217 29.8067V30.695H493.698L493.106 29.5106ZM499.916 31.5832H500.804L501.396 32.4715H500.212L499.916 31.5832ZM501.396 78.3658V79.2541L501.988 79.8463L502.581 78.958V78.3658H501.396Z" fill="#FF8B00"/>
<path fill-rule="evenodd" clip-rule="evenodd" d="M524.307 20.0356L520.754 79.2541C520.655 80.2411 520.813 82.215 522.234 82.215H550.067C555.594 81.6228 566.707 76.7669 566.944 62.0807C567.24 43.723 550.955 39.2816 539.112 40.466C539.112 38.3341 539.506 34.0507 539.704 32.1754L563.391 30.3988C563.885 30.3988 564.872 30.1028 564.872 28.9184V18.8512C564.773 18.1604 564.043 16.7786 561.911 16.7786C559.779 16.7786 537.335 17.3708 526.38 17.6669C525.724 17.8643 524.392 18.6144 524.307 20.0356ZM527.564 22.1083L526.972 27.4379V30.6949L526.38 31.8793V37.209L526.972 37.8012L527.564 36.0246L526.972 33.0637L527.86 31.2871C527.959 30.4975 528.156 28.8592 528.156 28.6223V26.2535L528.748 23.2926L527.564 22.1083ZM531.709 51.1253L532.005 50.5331L532.894 50.8292V51.4214L531.709 51.1253ZM537.927 55.5667C538.164 54.8561 539.013 54.6784 539.408 54.6784C540.493 54.5797 543.198 54.4415 545.329 54.6784C552.909 59.8896 548.488 65.5351 545.329 67.7065L537.335 67.4104L537.927 55.5667ZM555.397 64.4495C554.449 68.4763 549.277 71.457 546.81 72.444C547.994 72.7401 552.732 71.8518 554.212 71.2596C555.693 70.9635 556.581 59.4159 555.397 64.4495ZM554.508 57.9354L554.212 58.8237L554.508 59.4159L555.397 59.712L555.693 58.8237V57.9354H554.508ZM524.603 68.0026C524.504 67.8052 524.188 67.292 523.715 66.8182H526.38L527.564 67.4104L526.972 68.0026L527.564 68.5948V69.1869L528.156 69.483H529.34L529.933 70.0752V71.2596H530.525V72.1479L531.413 72.444V73.6283V73.9244H530.525L529.933 73.0361V72.444H528.748V71.2596V70.6674L528.156 70.3713L527.564 70.6674L526.38 70.3713V69.7791V69.1869H525.491L524.603 69.483L524.011 70.0752C523.912 69.9765 523.596 69.7199 523.123 69.483C522.649 69.2462 523.32 68.7922 523.715 68.5948L524.603 68.0026ZM524.011 63.5612L523.715 64.4495L524.603 65.3377H524.899L525.491 65.9299L526.38 66.226V65.9299V64.7456C526.281 64.8443 525.965 64.9824 525.491 64.7456C525.018 64.5087 525.886 64.0547 526.38 63.8573V62.969L524.603 63.2651L524.011 63.5612ZM524.603 60.8964V60.0081H525.491V60.6003L526.38 60.8964V61.4885C526.083 61.5872 525.491 61.7254 525.491 61.4885C525.491 61.2517 524.899 60.9951 524.603 60.8964ZM525.491 57.3433L524.899 58.5276L525.491 58.8237H526.083L526.38 58.5276V57.3433H525.491ZM529.34 61.7846L529.933 61.4885L531.117 61.7846L530.525 62.3768L529.933 63.2651L529.34 63.8573L528.748 63.2651V62.3768L529.34 61.7846ZM529.933 64.7456L529.34 65.0417L529.933 65.9299H530.821H531.709L532.005 66.226L532.894 65.3377L532.301 64.7456L531.117 64.4495L529.933 64.7456ZM533.782 62.6729V61.7846L535.262 60.8964L535.558 61.7846L535.262 62.3768L534.966 62.969L533.782 62.6729ZM528.748 58.5276L529.34 59.4159L529.933 60.0081L530.821 60.6003L531.413 60.0081L530.821 59.4159H530.525L529.933 58.5276L529.34 58.2315L528.748 58.5276ZM528.156 53.494L527.86 54.3823L528.156 54.6784L528.748 54.0862L528.156 53.494ZM532.301 57.0472L532.597 56.7511L533.486 56.455V57.0472L532.597 57.6393L532.301 57.0472ZM535.558 35.4324V33.3598H536.743V34.5441V35.4324L536.447 36.0246L535.855 36.3207L535.558 35.4324ZM534.966 37.8012V38.9855H535.855V39.8738H536.743L536.447 38.6894V37.8012H534.966ZM547.402 48.4605V47.2761H547.994V48.4605L547.698 49.3488L547.402 48.4605ZM527.268 72.444L526.972 73.0361L526.676 73.3322L527.268 74.2205L528.156 74.5166L528.452 75.1088H529.34L529.637 74.8127V73.6283L529.044 73.3322L528.748 73.0361H528.156L527.86 72.444H527.268ZM530.821 69.483V68.5948H531.709H532.597V69.483C532.597 69.7199 532.203 69.7791 532.005 69.7791L530.821 69.483ZM534.374 44.0191C533.979 44.3152 533.13 44.9074 532.894 44.9074C532.657 44.9074 532.203 45.3022 532.005 45.4996L532.301 46.0917L533.486 46.3878L533.782 45.7956H534.67L534.966 44.9074L534.374 44.0191Z" fill="#FF8B00"/>
<mask id="path-10-inside-1_133_850" fill="white">
<path fill-rule="evenodd" clip-rule="evenodd" d="M243.5 27.1418C244.487 28.8196 247.171 32.1754 250.014 32.1754C252.856 32.1754 257.12 33.5571 258.897 34.248C260.476 35.1363 263.752 37.9195 264.226 41.9464C264.818 46.98 265.114 68.0025 264.226 69.7791C263.634 72.4439 261.857 79.5501 256.232 80.7345C251.731 81.682 243.302 84.485 239.651 85.7681H231.952L232.84 27.1418H243.5ZM250.014 43.4269C246.743 43.4269 244.092 46.0782 244.092 49.3487V63.5612C244.092 66.8317 246.743 69.483 250.014 69.483C253.284 69.483 255.936 66.8317 255.936 63.5612V49.3487C255.936 46.0782 253.284 43.4269 250.014 43.4269Z"/>
</mask>
<path fill-rule="evenodd" clip-rule="evenodd" d="M243.5 27.1418C244.487 28.8196 247.171 32.1754 250.014 32.1754C252.856 32.1754 257.12 33.5571 258.897 34.248C260.476 35.1363 263.752 37.9195 264.226 41.9464C264.818 46.98 265.114 68.0025 264.226 69.7791C263.634 72.4439 261.857 79.5501 256.232 80.7345C251.731 81.682 243.302 84.485 239.651 85.7681H231.952L232.84 27.1418H243.5ZM250.014 43.4269C246.743 43.4269 244.092 46.0782 244.092 49.3487V63.5612C244.092 66.8317 246.743 69.483 250.014 69.483C253.284 69.483 255.936 66.8317 255.936 63.5612V49.3487C255.936 46.0782 253.284 43.4269 250.014 43.4269Z" fill="#CFCFCF"/>
<path d="M243.5 27.1418L247.988 24.5018L246.478 21.9349H243.5V27.1418ZM258.897 34.248L261.449 29.7098L261.128 29.5289L260.784 29.3951L258.897 34.248ZM264.226 41.9464L259.055 42.5548V42.5548L264.226 41.9464ZM264.226 69.7791L259.569 67.4505L259.282 68.0238L259.143 68.6496L264.226 69.7791ZM256.232 80.7345L257.304 85.8297H257.304L256.232 80.7345ZM239.651 85.7681V90.975H240.539L241.377 90.6806L239.651 85.7681ZM231.952 85.7681L226.746 85.6892L226.666 90.975H231.952V85.7681ZM232.84 27.1418V21.9349H227.712L227.634 27.0629L232.84 27.1418ZM250.014 26.9685C250.333 26.9685 250.447 27.0607 250.305 26.9884C250.162 26.915 249.907 26.7483 249.57 26.4406C248.869 25.8019 248.265 24.9736 247.988 24.5018L239.012 29.7818C239.721 30.9878 240.953 32.6763 242.552 34.1349C244.022 35.4753 246.632 37.3823 250.014 37.3823V26.9685ZM260.784 29.3951C259.723 28.9827 258.025 28.4019 256.178 27.9167C254.412 27.4525 252.116 26.9685 250.014 26.9685V37.3823C250.754 37.3823 252.011 37.5891 253.532 37.9885C254.972 38.3669 256.293 38.8225 257.009 39.1009L260.784 29.3951ZM269.397 41.338C269.013 38.066 267.511 35.4566 266 33.616C264.508 31.7991 262.793 30.4655 261.449 29.7098L256.344 38.7862C256.579 38.9188 257.292 39.421 257.952 40.2245C258.592 41.0042 258.966 41.8 259.055 42.5548L269.397 41.338ZM268.883 72.1077C269.293 71.2894 269.444 70.4743 269.5 70.1707C269.582 69.7239 269.641 69.2498 269.686 68.7996C269.778 67.8905 269.842 66.7825 269.887 65.5875C269.979 63.1807 270.007 60.1444 269.988 57.0526C269.951 50.9729 269.732 44.1827 269.397 41.338L259.055 42.5548C259.313 44.7437 259.537 50.9815 259.575 57.1157C259.593 60.1308 259.565 62.9978 259.481 65.1897C259.439 66.294 259.385 67.1593 259.325 67.7595C259.294 68.0639 259.269 68.2286 259.258 68.2874C259.221 68.4894 259.271 68.0467 259.569 67.4505L268.883 72.1077ZM257.304 85.8297C262.245 84.7895 265.123 81.1968 266.696 78.2895C268.281 75.3602 268.995 72.3203 269.309 70.9086L259.143 68.6496C258.865 69.9027 258.395 71.7483 257.537 73.3344C256.667 74.9425 255.844 75.4951 255.159 75.6393L257.304 85.8297ZM241.377 90.6806C245.066 89.3842 253.186 86.6967 257.304 85.8297L255.159 75.6393C250.276 76.6673 241.539 79.5858 237.925 80.8556L241.377 90.6806ZM231.952 90.975H239.651V80.5612H231.952V90.975ZM227.634 27.0629L226.746 85.6892L237.158 85.847L238.047 27.2207L227.634 27.0629ZM243.5 21.9349H232.84V32.3487H243.5V21.9349ZM249.299 49.3487C249.299 48.9539 249.619 48.6338 250.014 48.6338V38.22C243.868 38.22 238.885 43.2025 238.885 49.3487H249.299ZM249.299 63.5612V49.3487H238.885V63.5612H249.299ZM250.014 64.2761C249.619 64.2761 249.299 63.956 249.299 63.5612H238.885C238.885 69.7074 243.868 74.6899 250.014 74.6899V64.2761ZM250.729 63.5612C250.729 63.956 250.409 64.2761 250.014 64.2761V74.6899C256.16 74.6899 261.142 69.7074 261.142 63.5612H250.729ZM250.729 49.3487V63.5612H261.142V49.3487H250.729ZM250.014 48.6338C250.409 48.6338 250.729 48.9539 250.729 49.3487H261.142C261.142 43.2025 256.16 38.22 250.014 38.22V48.6338Z" fill="#C4C4C4" mask="url(#path-10-inside-1_133_850)"/>
<path d="M209.393 99.4443C191.188 99.1947 183.277 91.1043 181.653 87.8968C181.653 87.8969 181.654 87.8969 181.654 87.8969C181.659 87.895 181.597 87.694 181.521 87.1447C181.434 86.5259 181.355 85.6814 181.285 84.6189C181.147 82.5002 181.058 79.6638 181.01 76.3342C180.913 69.6833 180.977 61.1916 181.107 52.8093C181.237 44.432 181.433 36.1848 181.595 30.0305C181.677 26.9537 181.75 24.401 181.803 22.6178C181.805 22.524 181.808 22.4324 181.811 22.343H237.476C237.477 22.4221 237.479 22.5028 237.481 22.5853C237.517 24.363 237.567 26.9081 237.621 29.9764C237.728 36.1137 237.848 44.3407 237.904 52.7046C237.96 61.0733 237.95 69.5588 237.798 76.2207C237.721 79.5556 237.61 82.4029 237.456 84.5384C237.378 85.609 237.293 86.4654 237.202 87.0986C237.116 87.6948 237.048 87.9119 237.053 87.9136C237.054 87.9138 237.056 87.9105 237.059 87.9039C235.464 91.2817 227.589 99.6939 209.393 99.4443Z" fill="#CFCFCF" stroke="#C4C4C4" stroke-width="5.2069"/>
<path d="M184.281 83.8885V23.2926H235.801L234.876 86.3618C233.95 88.5259 228.453 94.9957 209.449 95.2431C190.445 95.4904 184.384 87.0832 184.281 83.8885Z" fill="url(#paint0_linear_133_850)"/>
<g filter="url(#filter0_f_133_850)">
<rect x="210.337" y="46.3878" width="7.10622" height="37.3076" rx="3.55311" fill="url(#paint1_linear_133_850)" fill-opacity="0.52"/>
</g>
<g filter="url(#filter1_f_133_850)">
<rect x="222.181" y="41.6503" width="7.10622" height="36.7155" rx="3.55311" fill="url(#paint2_linear_133_850)" fill-opacity="0.52"/>
</g>
<g filter="url(#filter2_f_133_850)">
<circle cx="201.159" cy="58.5276" r="1.48046" fill="#E4AD00"/>
<circle cx="198.79" cy="63.2651" r="1.48046" fill="#E4AD00"/>
<circle cx="194.052" cy="68.0026" r="1.48046" fill="#E4AD00"/>
<circle cx="191.091" cy="65.0417" r="0.888277" fill="#E4AD00"/>
<circle cx="195.237" cy="70.9635" r="0.888277" fill="#E4AD00"/>
<circle cx="198.494" cy="70.6674" r="1.18437" fill="#E4AD00"/>
<circle cx="193.46" cy="76.8853" r="1.48046" fill="#E4AD00"/>
<circle cx="193.164" cy="78.958" r="1.18437" fill="#E4AD00"/>
<circle cx="198.79" cy="78.0697" r="1.48046" fill="#E4AD00"/>
<circle cx="196.421" cy="83.3994" r="1.48046" fill="#E4AD00"/>
<circle cx="193.164" cy="61.1924" r="1.18437" fill="#E4AD00"/>
</g>
<path d="M175.971 22.0681L177.649 21.2289L177.384 19.3713C177.206 18.1279 177.396 16.2204 178.455 14.6766C179.418 13.2748 181.362 11.7845 185.529 11.6828L186.791 11.6521L187.548 10.6422C187.714 10.4214 187.885 10.155 188.076 9.85684C188.761 8.79034 189.706 7.31794 191.598 6.07318C193.777 4.63862 197.435 3.48667 203.56 5.61726L204.435 5.92149L205.305 5.60502C206.05 5.33438 206.922 4.89557 207.695 4.50656C207.945 4.38085 208.184 4.26034 208.406 4.1524C209.437 3.65002 210.488 3.19498 211.635 2.90817C213.802 2.36649 216.58 2.3514 220.272 4.51603L220.882 4.87349H221.589C222.096 4.87349 222.556 4.86423 222.985 4.85561C224.179 4.83159 225.128 4.81249 226.17 5.01209C227.379 5.2437 228.652 5.78985 230.039 7.29293L230.63 7.93276L231.486 8.08852C231.859 8.15621 232.335 8.22122 232.802 8.28488C232.934 8.3029 233.066 8.32081 233.194 8.33864C233.82 8.42591 234.497 8.52761 235.2 8.66781C236.632 8.95344 238.028 9.37264 239.146 10.0295C240.223 10.6619 240.951 11.4558 241.301 12.5337C241.663 13.651 241.737 15.4463 240.746 18.2898L240.425 19.2097L240.786 20.1142C241.736 22.4872 242.388 24.1415 242.414 25.6338C242.435 26.7858 242.079 28.0334 240.142 29.5151C238.772 30.5625 237.291 30.7966 235.888 30.6332C234.426 30.4628 233.163 29.865 232.534 29.4345L232.521 29.4257L232.508 29.417C231.692 28.8728 230.345 28.2036 228.842 27.9972C227.408 27.8004 225.488 28.0126 224.042 29.5548C222.941 30.1468 220.392 31.1881 217.361 31.6779C213.989 32.223 210.536 32.0033 207.91 30.2908L207.786 30.2095L207.653 30.1429C206.561 29.597 205.394 29.6725 204.445 30.1911C203.658 30.6208 203.168 31.2686 202.9 31.68C202.607 32.1305 202.395 32.5891 202.257 32.9185C202.156 33.1589 201.971 33.6459 201.998 33.5772L201.882 33.867L201.838 34.1759C201.564 36.0969 200.906 38.8819 199.888 41.0201C199.375 42.0981 198.858 42.8237 198.41 43.2204C198.021 43.5644 197.844 43.5414 197.737 43.5237C195.428 43.1388 194.67 42.601 194.075 41.8321C193.693 41.3405 193.304 40.641 192.822 39.546C192.418 38.63 191.999 37.5547 191.476 36.2155C191.371 35.9454 191.262 35.6645 191.147 35.372L190.993 34.9785L190.723 34.654C189.803 33.5499 188.48 32.7174 187.431 32.1581C186.632 31.7321 185.835 31.3831 185.184 31.1321C185.154 31.0867 185.122 31.0347 185.089 30.9758C184.887 30.6253 184.635 30.0584 184.454 29.2419C184.304 28.5664 183.945 27.3826 182.849 26.6669C181.451 25.7547 180.064 26.2802 179.421 26.6711C178.794 27.0522 178.33 27.5806 178.044 27.9477C178.021 27.977 177.999 28.0065 177.976 28.036C176.944 28.0675 175.428 27.6744 174.411 25.8654C174.079 25.2756 174.008 24.8436 174.012 24.5472C174.016 24.2432 174.102 23.9414 174.278 23.627C174.668 22.9336 175.41 22.3485 175.971 22.0681ZM185.36 31.3691C185.36 31.3691 185.359 31.3676 185.356 31.3644C185.359 31.3674 185.36 31.369 185.36 31.3691Z" fill="#F1F1F1" stroke="#C4C4C4" stroke-width="5.2069"/>
<path d="M222.773 13.2254L223.958 10.5606L225.734 7.89578C226.03 8.19187 226.623 8.96172 226.623 9.67234C226.623 10.5606 225.142 12.0411 225.142 12.3372C225.142 12.574 226.129 13.2254 226.623 13.5215L229.287 13.2254C229.485 13.8176 229.88 15.1204 229.88 15.5942C229.88 16.0679 229.09 16.1864 228.695 16.1864L228.103 17.6668L229.287 19.1473L230.472 20.9238H231.36L232.544 19.7395H234.913L235.505 21.516L234.913 23.2926C234.321 24.0822 233.018 25.6613 232.544 25.6613C231.952 25.6613 230.176 26.2535 229.88 26.2535C229.643 26.2535 228.597 25.8587 228.103 25.6613L227.215 24.1809V21.516L226.326 19.7395C226.09 19.2657 224.846 18.5551 224.254 18.259L222.773 16.1864V13.2254Z" fill="#EAEAEA"/>
<path d="M233.729 13.5215L232.544 12.3372L233.729 10.5606L236.098 11.745L237.874 12.3372L238.466 13.5215L238.762 15.002L239.651 16.1864L238.762 18.259V19.7395V20.9238L237.282 20.3317L236.394 18.5551L234.913 17.6668V16.1864V15.5942L233.729 14.4098V13.5215Z" fill="#EAEAEA"/>
<defs>
<filter id="filter0_f_133_850" x="209.036" y="45.0861" width="9.70966" height="39.9111" filterUnits="userSpaceOnUse" color-interpolation-filters="sRGB">
<feFlood flood-opacity="0" result="BackgroundImageFix"/>
<feBlend mode="normal" in="SourceGraphic" in2="BackgroundImageFix" result="shape"/>
<feGaussianBlur stdDeviation="0.650862" result="effect1_foregroundBlur_133_850"/>
</filter>
<filter id="filter1_f_133_850" x="220.879" y="40.3486" width="9.70966" height="39.3189" filterUnits="userSpaceOnUse" color-interpolation-filters="sRGB">
<feFlood flood-opacity="0" result="BackgroundImageFix"/>
<feBlend mode="normal" in="SourceGraphic" in2="BackgroundImageFix" result="shape"/>
<feGaussianBlur stdDeviation="0.650862" result="effect1_foregroundBlur_133_850"/>
</filter>
<filter id="filter2_f_133_850" x="186.298" y="53.1419" width="20.2462" height="35.6431" filterUnits="userSpaceOnUse" color-interpolation-filters="sRGB">
<feFlood flood-opacity="0" result="BackgroundImageFix"/>
<feBlend mode="normal" in="SourceGraphic" in2="BackgroundImageFix" result="shape"/>
<feGaussianBlur stdDeviation="1.95259" result="effect1_foregroundBlur_133_850"/>
</filter>
<linearGradient id="paint0_linear_133_850" x1="210.041" y1="23.2926" x2="210.337" y2="63.2651" gradientUnits="userSpaceOnUse">
<stop stop-color="#FF8200"/>
<stop offset="1" stop-color="#F4E22A"/>
</linearGradient>
<linearGradient id="paint1_linear_133_850" x1="213.891" y1="46.3878" x2="213.891" y2="83.6955" gradientUnits="userSpaceOnUse">
<stop stop-color="#FBE413"/>
<stop offset="1" stop-color="#F5BC2A"/>
</linearGradient>
<linearGradient id="paint2_linear_133_850" x1="225.734" y1="41.6503" x2="225.734" y2="78.3658" gradientUnits="userSpaceOnUse">
<stop stop-color="#FBE413"/>
<stop offset="1" stop-color="#F5BC2A"/>
</linearGradient>
</defs>
</svg>
